<svg width="25" height="25" viewBox="0 0 25 25" fill="none" xmlns="http://www.w3.org/2000/svg">
<path d="M11.6628 20.1251L11.6613 20.1238C8.95891 17.6733 6.79707 15.7104 5.29879 13.8786C3.81199 12.0608 3.08333 10.4944 3.08333 8.85417C3.08333 6.19812 5.15645 4.125 7.8125 4.125C9.32221 4.125 10.7868 4.83269 11.7386 5.95042L12.5 6.84449L13.2613 5.95042C14.2132 4.83269 15.6778 4.125 17.1875 4.125C19.8435 4.125 21.9167 6.19812 21.9167 8.85417C21.9167 10.4944 21.188 12.0609 19.701 13.8802C18.2027 15.7132 16.0412 17.6783 13.3391 20.1338C13.3387 20.1342 13.3383 20.1346 13.3379 20.1349L12.5026 20.8896L11.6628 20.1251Z" fill="white" fill-opacity="0.54" stroke="#001A34" stroke-width="2"/>
</svg>
