<svg width="25" height="25" viewBox="0 0 25 25" fill="none" xmlns="http://www.w3.org/2000/svg">
<path d="M6.2595 16.808L4.31468 4.16667H3.12499C2.5497 4.16667 2.08333 3.7003 2.08333 3.125C2.08333 2.5497 2.5497 2.08333 3.12499 2.08333H5.19239C5.29229 2.08168 5.38993 2.09444 5.48298 2.11993C5.63083 2.16023 5.76559 2.23229 5.87947 2.32833C6.00221 2.43164 6.10157 2.56344 6.16646 2.71561C6.20221 2.79916 6.22735 2.88834 6.24018 2.98145L6.58278 5.20833H14.5833V7.29167H6.9033L8.18535 15.625H17.975L19.5375 10.4167H21.7125L19.7477 16.966C19.6155 17.4066 19.21 17.7083 18.75 17.7083H7.3081C7.20972 17.71 7.11353 17.6977 7.02174 17.673C6.86535 17.6312 6.72347 17.5539 6.60524 17.4502C6.49698 17.3554 6.40788 17.2381 6.34593 17.1039C6.30326 17.0118 6.27366 16.9123 6.2595 16.808Z" fill="#001A34"/>
<path d="M10.4167 20.8333C10.4167 21.9839 9.48392 22.9167 8.33333 22.9167C7.18274 22.9167 6.25 21.9839 6.25 20.8333C6.25 19.6827 7.18274 18.75 8.33333 18.75C9.48392 18.75 10.4167 19.6827 10.4167 20.8333Z" fill="#001A34"/>
<path d="M19.7917 20.8333C19.7917 21.9839 18.8589 22.9167 17.7083 22.9167C16.5577 22.9167 15.625 21.9839 15.625 20.8333C15.625 19.6827 16.5577 18.75 17.7083 18.75C18.8589 18.75 19.7917 19.6827 19.7917 20.8333Z" fill="#001A34"/>
<path d="M19.7917 2.08333C20.367 2.08333 20.8333 2.5497 20.8333 3.125V4.16667H21.875C22.4503 4.16667 22.9167 4.63304 22.9167 5.20833C22.9167 5.78363 22.4503 6.25 21.875 6.25H20.8333V7.29167C20.8333 7.86696 20.367 8.33333 19.7917 8.33333C19.2164 8.33333 18.75 7.86696 18.75 7.29167V6.25H17.7083C17.133 6.25 16.6667 5.78363 16.6667 5.20833C16.6667 4.63304 17.133 4.16667 17.7083 4.16667H18.75V3.125C18.75 2.5497 19.2164 2.08333 19.7917 2.08333Z" fill="#001A34"/>
</svg>
