<svg width="27" height="24" viewBox="0 0 27 24" fill="none" xmlns="http://www.w3.org/2000/svg">
<path d="M15.25 0.75C9.0375 0.75 4 5.7875 4 12H0.25L5.1125 16.8625L5.2 17.0375L10.25 12H6.5C6.5 7.1625 10.4125 3.25 15.25 3.25C20.0875 3.25 24 7.1625 24 12C24 16.8375 20.0875 20.75 15.25 20.75C12.8375 20.75 10.65 19.7625 9.075 18.175L7.3 19.95C9.3375 21.9875 12.1375 23.25 15.25 23.25C21.4625 23.25 26.5 18.2125 26.5 12C26.5 5.7875 21.4625 0.75 15.25 0.75ZM14 7V13.25L19.3125 16.4L20.275 14.7875L15.875 12.175V7H14Z" fill="#001A34"/>
</svg>
