<svg width="23" height="23" viewBox="0 0 23 23" fill="none" xmlns="http://www.w3.org/2000/svg">
<path d="M11.5 4.33899C9.24229 2.31619 5.77033 2.38957 3.60076 4.55914C1.35525 6.80465 1.35525 10.4453 3.60076 12.6909L10.1447 19.2348C10.8932 19.9833 12.1067 19.9833 12.8552 19.2348L19.3992 12.6909C21.6447 10.4453 21.6447 6.80465 19.3992 4.55914C17.2296 2.38957 13.7576 2.31619 11.5 4.33899ZM10.3772 5.91442L10.8223 6.35954C11.1966 6.73379 11.8034 6.73379 12.1776 6.35954L12.6227 5.91442C14.1197 4.41741 16.5469 4.41741 18.0439 5.91442C19.5409 7.41143 19.5409 9.83857 18.0439 11.3356L11.5 17.8795L4.95605 11.3356C3.45904 9.83857 3.45904 7.41143 4.95605 5.91442C6.45306 4.41741 8.88019 4.41741 10.3772 5.91442Z" fill="#001A34"/>
</svg>
