<svg width="19" height="19" viewBox="0 0 19 19" fill="none" xmlns="http://www.w3.org/2000/svg">
<path d="M8.70837 14.25H10.2917V12.6667H8.70837V14.25ZM9.50004 1.58333C5.13004 1.58333 1.58337 5.13 1.58337 9.5C1.58337 13.87 5.13004 17.4167 9.50004 17.4167C13.87 17.4167 17.4167 13.87 17.4167 9.5C17.4167 5.13 13.87 1.58333 9.50004 1.58333ZM9.50004 15.8333C6.00879 15.8333 3.16671 12.9913 3.16671 9.5C3.16671 6.00875 6.00879 3.16667 9.50004 3.16667C12.9913 3.16667 15.8334 6.00875 15.8334 9.5C15.8334 12.9913 12.9913 15.8333 9.50004 15.8333ZM9.50004 4.75C7.75046 4.75 6.33337 6.16708 6.33337 7.91667H7.91671C7.91671 7.04583 8.62921 6.33333 9.50004 6.33333C10.3709 6.33333 11.0834 7.04583 11.0834 7.91667C11.0834 9.5 8.70837 9.30208 8.70837 11.875H10.2917C10.2917 10.0938 12.6667 9.89583 12.6667 7.91667C12.6667 6.16708 11.2496 4.75 9.50004 4.75Z" fill="#001A34" fill-opacity="0.7"/>
</svg>
