<svg width="23" height="23" viewBox="0 0 23 23" fill="none" xmlns="http://www.w3.org/2000/svg">
<path d="M2.875 4.79167C2.875 3.73312 3.73312 2.875 4.79167 2.875H18.2083C19.2669 2.875 20.125 3.73312 20.125 4.79167V18.2083C20.125 19.2669 19.2669 20.125 18.2083 20.125H4.79167C3.73312 20.125 2.875 19.2669 2.875 18.2083V4.79167ZM4.79167 13.4167V18.2083H18.2083V13.4167H16.0241L15.2842 15.6364C15.1537 16.0277 14.7875 16.2917 14.375 16.2917H8.625C8.2125 16.2917 7.84629 16.0277 7.71585 15.6364L6.97594 13.4167H4.79167ZM18.2083 11.5V4.79167H4.79167V11.5H6.97594C7.80093 11.5 8.53336 12.0279 8.79425 12.8106L9.31573 14.375H13.6843L14.2058 12.8106C14.4666 12.0279 15.1991 11.5 16.0241 11.5H18.2083Z" fill="#001A34"/>
</svg>
