<svg width="19" height="19" viewBox="0 0 19 19" fill="none" xmlns="http://www.w3.org/2000/svg">
<path d="M9.5 1.58333C6.01667 1.58333 3.16667 4.43333 3.16667 7.91667C3.16667 12.1917 8.70833 17.0208 8.94583 17.2583C9.10417 17.3375 9.34167 17.4167 9.5 17.4167C9.65833 17.4167 9.89583 17.3375 10.0542 17.2583C10.2917 17.0208 15.8333 12.1917 15.8333 7.91667C15.8333 4.43333 12.9833 1.58333 9.5 1.58333ZM9.5 15.5958C7.8375 14.0125 4.75 10.6083 4.75 7.91667C4.75 5.30417 6.8875 3.16667 9.5 3.16667C12.1125 3.16667 14.25 5.30417 14.25 7.91667C14.25 10.5292 11.1625 14.0125 9.5 15.5958ZM9.5 4.75C7.75833 4.75 6.33333 6.175 6.33333 7.91667C6.33333 9.65833 7.75833 11.0833 9.5 11.0833C11.2417 11.0833 12.6667 9.65833 12.6667 7.91667C12.6667 6.175 11.2417 4.75 9.5 4.75ZM9.5 9.5C8.62917 9.5 7.91667 8.7875 7.91667 7.91667C7.91667 7.04583 8.62917 6.33333 9.5 6.33333C10.3708 6.33333 11.0833 7.04583 11.0833 7.91667C11.0833 8.7875 10.3708 9.5 9.5 9.5Z" fill="#001A34" fill-opacity="0.8"/>
</svg>
