<svg width="23" height="23" viewBox="0 0 23 23" fill="none" xmlns="http://www.w3.org/2000/svg">
<path d="M13.4166 18.2083C12.8874 18.2083 12.4583 18.6374 12.4583 19.1667C12.4583 19.6959 12.8874 20.125 13.4166 20.125H18.2083C19.2668 20.125 20.125 19.2669 20.125 18.2083V4.79167C20.125 3.73312 19.2668 2.875 18.2083 2.875H13.4166C12.8874 2.875 12.4583 3.30406 12.4583 3.83333C12.4583 4.36261 12.8874 4.79167 13.4166 4.79167H18.2083V18.2083H13.4166Z" fill="#001A34"/>
<path d="M15.0588 12.1714C15.1476 12.0809 15.2149 11.9773 15.2606 11.8668C15.3071 11.7547 15.3329 11.6318 15.3333 11.5029L15.3333 11.5L15.3333 11.4971C15.3326 11.2528 15.239 11.0088 15.0526 10.8224L11.2193 6.98902C10.845 6.61477 10.2382 6.61477 9.86398 6.98902C9.48973 7.36328 9.48973 7.97006 9.86398 8.34431L12.0613 10.5417H2.87496C2.34569 10.5417 1.91663 10.9707 1.91663 11.5C1.91663 12.0293 2.34569 12.4583 2.87496 12.4583H12.0613L9.86398 14.6557C9.48973 15.0299 9.48973 15.6367 9.86398 16.011C10.2382 16.3852 10.845 16.3852 11.2193 16.011L15.0519 12.1783L15.0588 12.1714Z" fill="#001A34"/>
</svg>
