<svg width="23" height="23" viewBox="0 0 23 23" fill="none" xmlns="http://www.w3.org/2000/svg">
<path d="M3.83333 6.70833C3.83333 6.17906 4.26239 5.75 4.79166 5.75H18.2083C18.7376 5.75 19.1667 6.17906 19.1667 6.70833C19.1667 7.23761 18.7376 7.66667 18.2083 7.66667H4.79166C4.26239 7.66667 3.83333 7.23761 3.83333 6.70833ZM3.83333 11.5C3.83333 10.9707 4.26239 10.5417 4.79166 10.5417H18.2083C18.7376 10.5417 19.1667 10.9707 19.1667 11.5C19.1667 12.0293 18.7376 12.4583 18.2083 12.4583H4.79166C4.26239 12.4583 3.83333 12.0293 3.83333 11.5ZM3.83333 16.2917C3.83333 15.7624 4.26239 15.3333 4.79166 15.3333H18.2083C18.7376 15.3333 19.1667 15.7624 19.1667 16.2917C19.1667 16.8209 18.7376 17.25 18.2083 17.25H4.79166C4.26239 17.25 3.83333 16.8209 3.83333 16.2917Z" fill="white"/>
</svg>
