<svg width="23" height="23" viewBox="0 0 23 23" fill="none" xmlns="http://www.w3.org/2000/svg">
<path d="M9.58329 3.83333C6.40766 3.83333 3.83329 6.40769 3.83329 9.58333C3.83329 12.759 6.40766 15.3333 9.58329 15.3333C12.7589 15.3333 15.3333 12.759 15.3333 9.58333C15.3333 6.40769 12.7589 3.83333 9.58329 3.83333ZM1.91663 9.58333C1.91663 5.34915 5.34911 1.91666 9.58329 1.91666C13.8175 1.91666 17.25 5.34915 17.25 9.58333C17.25 11.355 16.649 12.9863 15.6398 14.2846L20.8026 19.4474C21.1769 19.8216 21.1769 20.4284 20.8026 20.8026C20.4284 21.1769 19.8216 21.1769 19.4473 20.8026L14.2845 15.6399C12.9863 16.649 11.355 17.25 9.58329 17.25C5.34911 17.25 1.91663 13.8175 1.91663 9.58333Z" fill="white"/>
</svg>
