<svg width="23" height="23" viewBox="0 0 23 23" fill="none" xmlns="http://www.w3.org/2000/svg">
<path d="M3.96947 3.83333L5.75871 15.4634C5.77173 15.5594 5.79896 15.6508 5.83822 15.7356C5.95641 15.9908 6.18356 16.1852 6.45997 16.2592C6.54441 16.2819 6.6329 16.2932 6.72341 16.2917H17.25C17.6732 16.2917 18.0463 16.0141 18.1679 15.6087L21.0429 6.02537C21.1299 5.73522 21.0747 5.42098 20.8938 5.17794C20.713 4.9349 20.4279 4.79167 20.125 4.79167H6.05612L5.74093 2.74293C5.72913 2.65728 5.706 2.57523 5.67311 2.49836C5.61341 2.35837 5.522 2.23711 5.40907 2.14206C5.30431 2.05371 5.18033 1.98741 5.04431 1.95033C4.9587 1.92689 4.86887 1.91514 4.77696 1.91667H2.87496C2.34569 1.91667 1.91663 2.34573 1.91663 2.875C1.91663 3.40427 2.34569 3.83333 2.87496 3.83333H3.96947ZM7.53048 14.375L6.351 6.70833H18.8369L16.5369 14.375H7.53048Z" fill="#001A34"/>
<path d="M9.58329 19.1667C9.58329 20.2252 8.72517 21.0833 7.66663 21.0833C6.60808 21.0833 5.74996 20.2252 5.74996 19.1667C5.74996 18.1081 6.60808 17.25 7.66663 17.25C8.72517 17.25 9.58329 18.1081 9.58329 19.1667Z" fill="#001A34"/>
<path d="M18.2083 19.1667C18.2083 20.2252 17.3502 21.0833 16.2916 21.0833C15.2331 21.0833 14.375 20.2252 14.375 19.1667C14.375 18.1081 15.2331 17.25 16.2916 17.25C17.3502 17.25 18.2083 18.1081 18.2083 19.1667Z" fill="#001A34"/>
</svg>
