<svg width="31" height="39" viewBox="0 0 31 39" fill="none" xmlns="http://www.w3.org/2000/svg">
<g clip-path="url(#clip0_29_108)">
<path d="M25.8443 37.1262C23.8488 39.1243 21.6472 38.8128 19.5486 37.8707C17.3175 36.9097 15.2778 36.8489 12.9215 37.8707C9.9872 39.1775 8.42984 38.7976 6.66262 37.1262C-3.31482 26.5279 -1.84213 10.3836 9.49753 9.77577C12.2478 9.92772 14.1733 11.3446 15.7933 11.4624C18.2011 10.9572 20.5058 9.50987 23.083 9.6998C26.1794 9.95811 28.4952 11.2193 30.0415 13.4871C23.6721 17.4377 25.1816 26.0986 31.0319 28.5298C29.8611 31.7017 28.3589 34.8356 25.8406 37.1528L25.8443 37.1262ZM15.5724 9.66182C15.2741 4.95147 18.9743 1.07683 23.2303 0.69696C23.8157 6.12905 18.4441 10.1936 15.5724 9.66182Z" fill="white"/>
</g>
<defs>
<clipPath id="clip0_29_108">
<rect width="31" height="37.9867" fill="white" transform="translate(0 0.666687)"/>
</clipPath>
</defs>
</svg>
