<svg width="30" height="30" viewBox="0 0 30 30" fill="none" xmlns="http://www.w3.org/2000/svg">
<path d="M26.25 24.4625L24.4663 26.2475L16.4138 18.195L18.2013 16.41L26.25 24.4625ZM16.4 3.75C13.175 3.75 9.95 4.975 7.475 7.4375L7.4625 7.45C2.525 12.3875 2.525 20.4 7.4625 25.3375L25.3375 7.45C22.875 4.9875 19.6375 3.75 16.4 3.75ZM7.675 21.5875C6.75 20.0375 6.25 18.2625 6.25 16.4C6.25 15.2375 6.45 14.125 6.825 13.0625C7.0625 15.45 7.9375 17.8 9.4125 19.8625L7.675 21.5875ZM11.225 18.0375C9.5375 15.475 8.9 12.4125 9.5 9.5C10.225 9.35 10.95 9.275 11.6875 9.275C13.9375 9.275 16.125 9.9625 18.0375 11.225L11.225 18.0375ZM13.0625 6.825C14.125 6.45 15.2375 6.25 16.4 6.25C18.2625 6.25 20.0375 6.75 21.5875 7.675L19.85 9.4125C17.7875 7.9375 15.45 7.0625 13.0625 6.825Z" fill="#001A34"/>
</svg>
