<svg width="30" height="30" viewBox="0 0 30 30" fill="none" xmlns="http://www.w3.org/2000/svg">
<path d="M17.8375 7.49996C17.15 8.68746 17.5625 10.225 18.75 10.9125C19.9375 11.6 21.475 11.1875 22.1625 9.99996C22.85 8.81246 22.4375 7.27496 21.25 6.58746C20.0625 5.89996 18.525 6.31246 17.8375 7.49996Z" fill="#001A34"/>
<path d="M19.8001 13.0125C19.8001 13.0125 17.7626 11.8375 16.5501 11.1375C13.8876 9.58748 12.7876 6.34998 13.8251 3.54998C14.0376 2.97498 13.8126 2.33748 13.2876 2.03748C12.6251 1.66248 11.7626 1.94998 11.5001 2.66248C10.3126 5.79998 11.0626 9.34998 13.3251 11.75L7.51256 21.8125C7.16256 22.4125 7.37506 23.175 7.97506 23.525C8.57506 23.875 9.33756 23.6625 9.68756 23.0625L10.9376 20.9L13.1001 22.15L9.97506 27.5625C9.62506 28.1625 9.83756 28.925 10.4376 29.275C11.0376 29.625 11.8001 29.4125 12.1501 28.8125L19.3876 16.2875C20.6126 17.9625 20.9626 20.1875 20.2126 22.1875C20.0001 22.75 20.2376 23.3875 20.7501 23.6875C21.4126 24.075 22.2751 23.7875 22.5501 23.0625C23.7626 19.7875 23.0626 15.7625 19.8001 13.0125Z" fill="#001A34"/>
<path d="M15.9376 4.75006C16.8376 5.26256 17.9751 4.96256 18.5001 4.06256C19.0126 3.16256 18.7126 2.02506 17.8126 1.50006C16.9126 0.987557 15.7751 1.28756 15.2501 2.18756C14.7376 3.08756 15.0376 4.23756 15.9376 4.75006Z" fill="#001A34"/>
</svg>
