<svg width="30" height="30" viewBox="0 0 30 30" fill="none" xmlns="http://www.w3.org/2000/svg">
<path d="M14.4625 16.45C12.7625 16.8 11.75 17.9 11.75 19.4625C11.75 21.1375 13.1375 22.4875 14.8625 22.4875C17.425 22.4875 19.5 20.4125 19.5 17.85C19.5 16.5125 19.3125 15.2 18.925 13.95C17.9375 15.2875 16.175 16.1 14.4625 16.45ZM16.875 0.837524C16.875 0.837524 17.8 4.15002 17.8 6.83752C17.8 9.41252 16.1125 11.5 13.5375 11.5C10.95 11.5 9 9.41252 9 6.83752L9.0375 6.38752C6.5125 9.38752 5 13.275 5 17.5C5 23.025 9.475 27.5 15 27.5C20.525 27.5 25 23.025 25 17.5C25 10.7625 21.7625 4.75002 16.875 0.837524ZM15 25C10.8625 25 7.5 21.6375 7.5 17.5C7.5 15.5875 7.875 13.7 8.575 11.9625C9.8375 13.225 11.5875 14 13.5375 14C16.8625 14 19.475 11.7125 20.1375 8.46252C21.675 11.2125 22.5 14.3 22.5 17.5C22.5 21.6375 19.1375 25 15 25Z" fill="#001A34"/>
</svg>
