<svg width="22" height="22" viewBox="0 0 22 22" fill="none" xmlns="http://www.w3.org/2000/svg">
<path d="M9.23998 9.95492C9.28581 9.65242 9.38665 9.38659 9.51498 9.15742C9.64331 8.92825 9.82665 8.73575 10.0558 8.58909C10.2758 8.45159 10.5508 8.38742 10.89 8.37825C11.1008 8.38742 11.2933 8.42409 11.4675 8.49742C11.6508 8.57992 11.8158 8.68992 11.9441 8.82742C12.0725 8.96492 12.1733 9.12992 12.2558 9.31325C12.3383 9.49659 12.375 9.69825 12.3841 9.89992H14.025C14.0066 9.46909 13.9241 9.07492 13.7683 8.71742C13.6125 8.35992 13.4016 8.04825 13.1266 7.79159C12.8516 7.53492 12.5216 7.33325 12.1366 7.18659C11.7516 7.03992 11.33 6.97575 10.8625 6.97575C10.2666 6.97575 9.74415 7.07659 9.30415 7.28742C8.86415 7.49825 8.49748 7.77325 8.20415 8.13075C7.91081 8.48825 7.69081 8.90075 7.55331 9.37742C7.41581 9.85408 7.33331 10.3491 7.33331 10.8808V11.1283C7.33331 11.6599 7.40665 12.1549 7.54415 12.6316C7.68165 13.1083 7.90165 13.5208 8.19498 13.8691C8.48831 14.2174 8.85498 14.5016 9.29498 14.7033C9.73498 14.9049 10.2575 15.0149 10.8533 15.0149C11.2841 15.0149 11.6875 14.9416 12.0633 14.8041C12.4391 14.6666 12.7691 14.4741 13.0533 14.2266C13.3375 13.9791 13.5666 13.6949 13.7316 13.3649C13.8966 13.0349 13.9975 12.6866 14.0066 12.3108H12.3658C12.3566 12.5033 12.3108 12.6774 12.2283 12.8424C12.1458 13.0074 12.0358 13.1449 11.8983 13.2641C11.7608 13.3833 11.605 13.4749 11.4216 13.5391C11.2475 13.6033 11.0641 13.6216 10.8716 13.6308C10.5416 13.6216 10.2666 13.5574 10.0558 13.4199C9.82665 13.2733 9.64331 13.0808 9.51498 12.8516C9.38665 12.6224 9.28581 12.3474 9.23998 12.0449C9.19415 11.7424 9.16665 11.4308 9.16665 11.1283V10.8808C9.16665 10.5599 9.19415 10.2574 9.23998 9.95492ZM11 1.83325C5.93998 1.83325 1.83331 5.93992 1.83331 10.9999C1.83331 16.0599 5.93998 20.1666 11 20.1666C16.06 20.1666 20.1666 16.0599 20.1666 10.9999C20.1666 5.93992 16.06 1.83325 11 1.83325ZM11 18.3333C6.95748 18.3333 3.66665 15.0424 3.66665 10.9999C3.66665 6.95742 6.95748 3.66659 11 3.66659C15.0425 3.66659 18.3333 6.95742 18.3333 10.9999C18.3333 15.0424 15.0425 18.3333 11 18.3333Z" fill="#9DA1AC"/>
</svg>
