<svg width="54" height="54" viewBox="0 0 54 54" fill="none" xmlns="http://www.w3.org/2000/svg">
<circle cx="27" cy="27" r="25" stroke="#9DA1AC" stroke-width="3"/>
<path d="M3 27C3 13.7452 13.7452 3 27 3C40.2548 3 51 13.7452 51 27C51 40.2548 40.2548 51 27 51C13.7452 51 3 40.2548 3 27Z" fill="white"/>
<path d="M37.4697 36.2301H16.5009C15.6878 36.2301 15.0031 35.5668 15.0031 34.7323V19.5834C15.0031 18.7704 15.6664 18.0857 16.5009 18.0857H37.4697C38.2828 18.0857 38.9675 18.749 38.9675 19.5834V34.7323C38.9675 35.5668 38.3042 36.2301 37.4697 36.2301Z" fill="#E3E3E3"/>
<path opacity="0.1" d="M17.9987 36.2299L26.9639 29.0192L27.0281 28.6341L17.7847 21.9797L17.7633 35.909L17.9987 36.2299Z" fill="#231F20"/>
<path d="M16.5009 36.2299C15.6664 36.2299 15.0031 35.5666 15.0031 34.7321V19.5618C15.0031 18.7274 15.6664 18.5776 16.5009 18.5776C17.3354 18.5776 17.9987 18.7488 17.9987 19.5618V36.2299H16.5009Z" fill="#D54B3D"/>
<path fill-rule="evenodd" clip-rule="evenodd" d="M15.0031 19.5618C15.0031 18.7488 15.6664 18.5776 16.5009 18.5776C17.3354 18.5776 17.9987 18.7274 17.9987 19.5618V36.2299H16.5009C15.6664 36.2299 15.0031 35.5666 15.0031 34.7321V19.5618ZM17.7847 19.5618C17.7847 19.1125 17.5707 18.7916 16.5009 18.7916C15.4311 18.7916 15.2171 19.0911 15.2171 19.5618V34.7321C15.2171 35.4382 15.7948 36.0159 16.5009 36.0159H17.7847V19.5618Z" fill="#D72B27"/>
<path d="M37.4697 36.2299H35.9719V19.5191C35.9719 18.6846 36.6352 18.5776 37.4697 18.5776C38.3041 18.5776 38.9674 18.6846 38.9674 19.5191V34.7535C38.9674 35.5666 38.3041 36.2299 37.4697 36.2299Z" fill="#D54B3D"/>
<path fill-rule="evenodd" clip-rule="evenodd" d="M35.9719 19.5191C35.9719 18.6846 36.6352 18.5776 37.4697 18.5776C38.3041 18.5776 38.9674 18.6846 38.9674 19.5191V34.7535C38.9674 35.588 38.3041 36.2513 37.4697 36.2513H35.9719V19.5191ZM38.7535 19.5191C38.7535 18.9841 38.4325 18.7916 37.4697 18.7916C36.5068 18.7916 36.1859 18.9627 36.1859 19.5191V36.0373H37.4697C38.1758 36.0373 38.7535 35.4596 38.7535 34.7535V19.5191Z" fill="#D72B27"/>
<path d="M31.0507 36.23L15.1285 20.1842L15.966 20.5248L27.0495 28.5058L38.9675 19.7666V34.7536C38.9675 35.5667 38.3042 36.23 37.4697 36.23H31.0507Z" fill="url(#paint0_linear_198_529)"/>
<path d="M26.9639 29.0193L15.645 20.803C14.9817 20.3109 14.7892 19.3694 15.2813 18.7061C15.7734 18.0428 16.7363 17.893 17.421 18.3851L26.9853 25.3391L36.6138 18.2996C37.2771 17.8074 38.2186 17.9572 38.7107 18.6419C39.2028 19.3052 39.053 20.2467 38.3683 20.7388L26.9639 29.0193Z" fill="#D54B3D"/>
<path fill-rule="evenodd" clip-rule="evenodd" d="M36.5924 18.2782C36.8492 18.0856 37.1701 18 37.4697 18C37.9404 18 38.3897 18.214 38.6893 18.6419C39.16 19.3266 39.0103 20.2467 38.347 20.7388L26.9639 29.0407L15.645 20.803C14.9817 20.3108 14.7892 19.3694 15.2599 18.7061C15.5594 18.2996 16.0302 18.0856 16.5009 18.0856C16.8219 18.0856 17.1428 18.1712 17.3996 18.3637L26.9639 25.3177L36.5924 18.2782ZM38.5181 18.7489C38.2614 18.4065 37.8762 18.214 37.4697 18.214C37.1915 18.214 36.9348 18.2996 36.6994 18.4493L27.0923 25.4889L26.9639 25.5744L26.8355 25.4889L17.2926 18.5563C17.0786 18.3851 16.8005 18.2996 16.5223 18.2996C16.0944 18.2996 15.6878 18.5135 15.4525 18.8345C15.0459 19.3908 15.1957 20.2039 15.7734 20.6318L26.9639 28.7625L38.24 20.5462C38.7963 20.1183 38.9247 19.3266 38.5181 18.7489Z" fill="#D72B27"/>
<defs>
<linearGradient id="paint0_linear_198_529" x1="15.1294" y1="36.2319" x2="38.9752" y2="36.2319" gradientUnits="userSpaceOnUse">
<stop stop-opacity="0.1"/>
<stop offset="1" stop-opacity="0.2"/>
</linearGradient>
</defs>
</svg>
