<svg width="54" height="54" viewBox="0 0 54 54" fill="none" xmlns="http://www.w3.org/2000/svg">
<circle cx="27" cy="27" r="25" stroke="#9DA1AC" stroke-width="3"/>
<path d="M27 51C40.2548 51 51 40.2548 51 27C51 13.7452 40.2548 3 27 3C13.7452 3 3 13.7452 3 27C3 40.2548 13.7452 51 27 51Z" fill="#25D366"/>
<path fill-rule="evenodd" clip-rule="evenodd" d="M27.7911 40.3526H27.7852C25.3967 40.3517 23.0498 39.7525 20.9654 38.6155L13.4 40.6L15.4246 33.2049C14.1758 31.0406 13.5186 28.5855 13.5197 26.0703C13.5228 18.2017 19.9248 11.8 27.791 11.8C31.6087 11.8017 35.1918 13.2879 37.8862 15.9855C40.5806 18.6829 42.0637 22.2684 42.0622 26.0816C42.059 33.9483 35.6595 40.3494 27.7911 40.3526ZM21.3159 36.0319L21.749 36.289C23.5702 37.3697 25.6578 37.9416 27.7863 37.9424H27.7911C34.3289 37.9424 39.6499 32.6212 39.6526 26.0807C39.6538 22.9113 38.4212 19.9311 36.1817 17.689C33.9422 15.4469 30.964 14.2116 27.7958 14.2105C21.253 14.2105 15.9318 19.5312 15.9292 26.0711C15.9283 28.3124 16.5554 30.4952 17.7428 32.3837L18.0248 32.8325L16.8265 37.2096L21.3159 36.0319ZM34.4924 29.1541C34.7411 29.2743 34.9091 29.3555 34.9808 29.4752C35.0699 29.6239 35.0699 30.3378 34.7729 31.1709C34.4756 32.0038 33.0511 32.764 32.3659 32.8664C31.7516 32.9582 30.9742 32.9965 30.12 32.7251C29.602 32.5608 28.9379 32.3414 28.0871 31.9739C24.7442 30.5305 22.485 27.2904 22.0581 26.6781C22.0282 26.6352 22.0072 26.6052 21.9956 26.5896L21.9927 26.5858C21.804 26.334 20.5395 24.6469 20.5395 22.9008C20.5395 21.2583 21.3464 20.3974 21.7178 20.0011C21.7432 19.9739 21.7666 19.9489 21.7876 19.9261C22.1144 19.5691 22.5008 19.4798 22.7385 19.4798C22.9762 19.4798 23.2141 19.482 23.4219 19.4924C23.4475 19.4937 23.4742 19.4936 23.5018 19.4934C23.7096 19.4922 23.9686 19.4907 24.2242 20.1046C24.3225 20.3408 24.4664 20.6911 24.6181 21.0605C24.925 21.8075 25.264 22.6328 25.3236 22.7523C25.4128 22.9308 25.4722 23.1389 25.3534 23.377C25.3355 23.4127 25.319 23.4464 25.3032 23.4786C25.214 23.6608 25.1483 23.7949 24.9968 23.9718C24.9372 24.0414 24.8756 24.1164 24.814 24.1914C24.6914 24.3408 24.5687 24.4902 24.4619 24.5966C24.2834 24.7744 24.0975 24.9673 24.3055 25.3243C24.5136 25.6813 25.2292 26.849 26.2893 27.7945C27.4288 28.8109 28.4192 29.2405 28.9212 29.4583C29.0192 29.5008 29.0986 29.5353 29.1569 29.5644C29.5133 29.743 29.7214 29.7131 29.9294 29.4752C30.1374 29.2372 30.8208 28.4339 31.0585 28.077C31.2962 27.7201 31.534 27.7796 31.8608 27.8985C32.1877 28.0176 33.9408 28.8802 34.2974 29.0586C34.367 29.0935 34.4321 29.125 34.4924 29.1541Z" fill="#FDFDFD"/>
</svg>
