<svg width="36" height="36" viewBox="0 0 36 36" fill="none" xmlns="http://www.w3.org/2000/svg">
<path d="M20.835 13.05L18 15.885L15.165 13.05C14.58 12.465 13.635 12.465 13.05 13.05C12.465 13.635 12.465 14.58 13.05 15.165L15.885 18L13.05 20.835C12.465 21.42 12.465 22.365 13.05 22.95C13.635 23.535 14.58 23.535 15.165 22.95L18 20.115L20.835 22.95C21.42 23.535 22.365 23.535 22.95 22.95C23.535 22.365 23.535 21.42 22.95 20.835L20.115 18L22.95 15.165C23.535 14.58 23.535 13.635 22.95 13.05C22.365 12.48 21.405 12.48 20.835 13.05ZM18 3C9.705 3 3 9.705 3 18C3 26.295 9.705 33 18 33C26.295 33 33 26.295 33 18C33 9.705 26.295 3 18 3ZM18 30C11.385 30 6 24.615 6 18C6 11.385 11.385 6 18 6C24.615 6 30 11.385 30 18C30 24.615 24.615 30 18 30Z" fill="white"/>
</svg>
