<svg width="36" height="36" viewBox="0 0 36 36" fill="none" xmlns="http://www.w3.org/2000/svg">
<path d="M18 6C11.3726 6 6 11.3726 6 18C6 24.6274 11.3726 30 18 30C24.6274 30 30 24.6274 30 18C30 11.3726 24.6274 6 18 6ZM3 18C3 9.71573 9.71573 3 18 3C26.2843 3 33 9.71573 33 18C33 26.2843 26.2843 33 18 33C9.71573 33 3 26.2843 3 18ZM24.9965 13.1289C25.6157 13.6793 25.6715 14.6274 25.1211 15.2465L17.1211 24.2465C16.8365 24.5668 16.4285 24.75 16 24.75C15.5715 24.75 15.1635 24.5668 14.8789 24.2465L10.8789 19.7465C10.3285 19.1274 10.3843 18.1793 11.0035 17.6289C11.6226 17.0785 12.5707 17.1343 13.1211 17.7535L16 20.9922L22.8789 13.2535C23.4293 12.6343 24.3774 12.5785 24.9965 13.1289Z" fill="white"/>
</svg>
