<svg width="17" height="17" viewBox="0 0 17 17" fill="none" xmlns="http://www.w3.org/2000/svg">
<path d="M8.50016 0.833344C9.02944 0.833344 9.4585 1.2624 9.4585 1.79168V7.54168H15.2085C15.7378 7.54168 16.1668 7.97074 16.1668 8.50001C16.1668 9.02929 15.7378 9.45835 15.2085 9.45835H9.4585V15.2083C9.4585 15.7376 9.02944 16.1667 8.50016 16.1667C7.97089 16.1667 7.54183 15.7376 7.54183 15.2083V9.45835H1.79183C1.26256 9.45835 0.833496 9.02929 0.833496 8.50001C0.833496 7.97074 1.26256 7.54168 1.79183 7.54168H7.54183V1.79168C7.54183 1.2624 7.97089 0.833344 8.50016 0.833344Z" fill="white"/>
</svg>
